<mxfile host="app.diagrams.net" modified="2020-08-26T04:53:57.884Z" agent="5.0 (Macintosh; Intel Mac OS X 10_14_6) AppleWebKit/537.36 (KHTML, like Gecko) Chrome/84.0.4147.125 Safari/537.36" etag="_WlQrFWDckUzMcQO0AyG" version="13.6.5" type="github">
  <diagram id="Ke_sWm8tPSb53_-xRx5j" name="Page-1">
    <mxGraphModel dx="1376" dy="617" grid="1" gridSize="10" guides="1" tooltips="1" connect="1" arrows="1" fold="1" page="1" pageScale="1" pageWidth="827" pageHeight="1169" math="0" shadow="0">
      <root>
        <mxCell id="0" />
        <mxCell id="1" parent="0" />
        <mxCell id="qOs1S8iKU6oeSp8uMiWg-1" value="" style="rounded=1;whiteSpace=wrap;html=1;fillColor=#ffe6cc;strokeColor=#d79b00;" vertex="1" parent="1">
          <mxGeometry x="120" y="260" width="220" height="250" as="geometry" />
        </mxCell>
        <mxCell id="qOs1S8iKU6oeSp8uMiWg-4" value="" style="rounded=1;whiteSpace=wrap;html=1;fillColor=#e1d5e7;strokeColor=#9673a6;" vertex="1" parent="1">
          <mxGeometry x="490" y="280" width="310" height="270" as="geometry" />
        </mxCell>
        <mxCell id="qOs1S8iKU6oeSp8uMiWg-5" value="Container" style="text;html=1;strokeColor=none;fillColor=none;align=center;verticalAlign=middle;whiteSpace=wrap;rounded=0;fontStyle=1;fontColor=#0066CC;fontSize=20;" vertex="1" parent="1">
          <mxGeometry x="690" y="240" width="40" height="20" as="geometry" />
        </mxCell>
        <mxCell id="qOs1S8iKU6oeSp8uMiWg-6" value="Running" style="ellipse;whiteSpace=wrap;html=1;aspect=fixed;fillColor=#d5e8d4;strokeColor=#82b366;fontStyle=1" vertex="1" parent="1">
          <mxGeometry x="510" y="350" width="80" height="80" as="geometry" />
        </mxCell>
        <mxCell id="qOs1S8iKU6oeSp8uMiWg-7" value="Paused" style="ellipse;whiteSpace=wrap;html=1;aspect=fixed;fillColor=#fff2cc;strokeColor=#d6b656;fontStyle=1" vertex="1" parent="1">
          <mxGeometry x="670" y="280" width="80" height="80" as="geometry" />
        </mxCell>
        <mxCell id="qOs1S8iKU6oeSp8uMiWg-8" value="Stopped" style="ellipse;whiteSpace=wrap;html=1;aspect=fixed;fillColor=#f8cecc;strokeColor=#b85450;fontStyle=1" vertex="1" parent="1">
          <mxGeometry x="670" y="460" width="80" height="80" as="geometry" />
        </mxCell>
        <mxCell id="qOs1S8iKU6oeSp8uMiWg-9" value="" style="endArrow=classic;html=1;entryX=0;entryY=0;entryDx=0;entryDy=0;" edge="1" parent="1" target="qOs1S8iKU6oeSp8uMiWg-6">
          <mxGeometry width="50" height="50" relative="1" as="geometry">
            <mxPoint x="340" y="362" as="sourcePoint" />
            <mxPoint x="330" y="290" as="targetPoint" />
          </mxGeometry>
        </mxCell>
        <mxCell id="qOs1S8iKU6oeSp8uMiWg-10" value="" style="rounded=1;whiteSpace=wrap;html=1;fillColor=#dae8fc;strokeColor=#6c8ebf;" vertex="1" parent="1">
          <mxGeometry x="120" y="150" width="610" height="40" as="geometry" />
        </mxCell>
        <mxCell id="qOs1S8iKU6oeSp8uMiWg-11" value="" style="rounded=1;whiteSpace=wrap;html=1;fillColor=#d5e8d4;strokeColor=#82b366;" vertex="1" parent="1">
          <mxGeometry x="120" y="610" width="600" height="40" as="geometry" />
        </mxCell>
        <mxCell id="qOs1S8iKU6oeSp8uMiWg-12" value="" style="endArrow=classic;html=1;exitX=1;exitY=0;exitDx=0;exitDy=0;" edge="1" parent="1" source="qOs1S8iKU6oeSp8uMiWg-6" target="qOs1S8iKU6oeSp8uMiWg-7">
          <mxGeometry width="50" height="50" relative="1" as="geometry">
            <mxPoint x="470" y="390" as="sourcePoint" />
            <mxPoint x="520" y="340" as="targetPoint" />
          </mxGeometry>
        </mxCell>
        <mxCell id="qOs1S8iKU6oeSp8uMiWg-13" value="" style="endArrow=classic;html=1;exitX=0.388;exitY=1.013;exitDx=0;exitDy=0;exitPerimeter=0;" edge="1" parent="1" source="qOs1S8iKU6oeSp8uMiWg-7" target="qOs1S8iKU6oeSp8uMiWg-6">
          <mxGeometry width="50" height="50" relative="1" as="geometry">
            <mxPoint x="470" y="390" as="sourcePoint" />
            <mxPoint x="520" y="340" as="targetPoint" />
          </mxGeometry>
        </mxCell>
        <mxCell id="qOs1S8iKU6oeSp8uMiWg-14" value="" style="endArrow=classic;html=1;exitX=1;exitY=1;exitDx=0;exitDy=0;entryX=0;entryY=0.5;entryDx=0;entryDy=0;" edge="1" parent="1" source="qOs1S8iKU6oeSp8uMiWg-6" target="qOs1S8iKU6oeSp8uMiWg-8">
          <mxGeometry width="50" height="50" relative="1" as="geometry">
            <mxPoint x="470" y="390" as="sourcePoint" />
            <mxPoint x="520" y="340" as="targetPoint" />
          </mxGeometry>
        </mxCell>
        <mxCell id="qOs1S8iKU6oeSp8uMiWg-15" value="" style="endArrow=classic;html=1;exitX=0;exitY=0;exitDx=0;exitDy=0;" edge="1" parent="1" source="qOs1S8iKU6oeSp8uMiWg-8" target="qOs1S8iKU6oeSp8uMiWg-6">
          <mxGeometry width="50" height="50" relative="1" as="geometry">
            <mxPoint x="470" y="390" as="sourcePoint" />
            <mxPoint x="520" y="340" as="targetPoint" />
          </mxGeometry>
        </mxCell>
        <mxCell id="qOs1S8iKU6oeSp8uMiWg-16" value="" style="endArrow=classic;html=1;exitX=0.627;exitY=-0.008;exitDx=0;exitDy=0;entryX=0.29;entryY=1;entryDx=0;entryDy=0;exitPerimeter=0;entryPerimeter=0;" edge="1" parent="1" source="qOs1S8iKU6oeSp8uMiWg-1" target="qOs1S8iKU6oeSp8uMiWg-10">
          <mxGeometry width="50" height="50" relative="1" as="geometry">
            <mxPoint x="430" y="390" as="sourcePoint" />
            <mxPoint x="130" y="510" as="targetPoint" />
          </mxGeometry>
        </mxCell>
        <mxCell id="qOs1S8iKU6oeSp8uMiWg-17" value="" style="endArrow=classic;html=1;exitX=0.371;exitY=1.025;exitDx=0;exitDy=0;entryX=0.886;entryY=0;entryDx=0;entryDy=0;exitPerimeter=0;entryPerimeter=0;" edge="1" parent="1" source="qOs1S8iKU6oeSp8uMiWg-10" target="qOs1S8iKU6oeSp8uMiWg-1">
          <mxGeometry width="50" height="50" relative="1" as="geometry">
            <mxPoint x="250" y="480" as="sourcePoint" />
            <mxPoint x="300" y="430" as="targetPoint" />
          </mxGeometry>
        </mxCell>
        <mxCell id="qOs1S8iKU6oeSp8uMiWg-18" value="" style="endArrow=classic;html=1;entryX=0.25;entryY=1;entryDx=0;entryDy=0;exitX=0.075;exitY=0;exitDx=0;exitDy=0;exitPerimeter=0;" edge="1" parent="1" source="qOs1S8iKU6oeSp8uMiWg-11" target="qOs1S8iKU6oeSp8uMiWg-1">
          <mxGeometry width="50" height="50" relative="1" as="geometry">
            <mxPoint x="270" y="500" as="sourcePoint" />
            <mxPoint x="320" y="450" as="targetPoint" />
          </mxGeometry>
        </mxCell>
        <mxCell id="qOs1S8iKU6oeSp8uMiWg-19" value="" style="endArrow=classic;html=1;exitX=0.75;exitY=1;exitDx=0;exitDy=0;entryX=0.25;entryY=0;entryDx=0;entryDy=0;" edge="1" parent="1" source="qOs1S8iKU6oeSp8uMiWg-1" target="qOs1S8iKU6oeSp8uMiWg-11">
          <mxGeometry width="50" height="50" relative="1" as="geometry">
            <mxPoint x="290" y="450" as="sourcePoint" />
            <mxPoint x="340" y="400" as="targetPoint" />
          </mxGeometry>
        </mxCell>
        <mxCell id="qOs1S8iKU6oeSp8uMiWg-20" value="run" style="text;html=1;strokeColor=none;fillColor=none;align=center;verticalAlign=middle;whiteSpace=wrap;rounded=0;fontColor=#4C0099;fontStyle=1" vertex="1" parent="1">
          <mxGeometry x="380" y="340" width="70" height="20" as="geometry" />
        </mxCell>
        <mxCell id="qOs1S8iKU6oeSp8uMiWg-21" value="docker ps" style="text;html=1;strokeColor=none;fillColor=none;align=center;verticalAlign=middle;whiteSpace=wrap;rounded=0;fontColor=#4C0099;fontStyle=1" vertex="1" parent="1">
          <mxGeometry x="504" y="460" width="60" height="20" as="geometry" />
        </mxCell>
        <mxCell id="qOs1S8iKU6oeSp8uMiWg-22" value="docker top" style="text;html=1;strokeColor=none;fillColor=none;align=center;verticalAlign=middle;whiteSpace=wrap;rounded=0;fontColor=#4C0099;fontStyle=1" vertex="1" parent="1">
          <mxGeometry x="497" y="480" width="80" height="20" as="geometry" />
        </mxCell>
        <mxCell id="qOs1S8iKU6oeSp8uMiWg-23" value="start" style="text;html=1;strokeColor=none;fillColor=none;align=center;verticalAlign=middle;whiteSpace=wrap;rounded=0;fontColor=#4C0099;fontStyle=1" vertex="1" parent="1">
          <mxGeometry x="610" y="410" width="40" height="20" as="geometry" />
        </mxCell>
        <mxCell id="qOs1S8iKU6oeSp8uMiWg-24" value="stop" style="text;html=1;strokeColor=none;fillColor=none;align=center;verticalAlign=middle;whiteSpace=wrap;rounded=0;fontColor=#4C0099;fontStyle=1" vertex="1" parent="1">
          <mxGeometry x="600" y="460" width="40" height="20" as="geometry" />
        </mxCell>
        <mxCell id="qOs1S8iKU6oeSp8uMiWg-25" value="unpause" style="text;html=1;strokeColor=none;fillColor=none;align=center;verticalAlign=middle;whiteSpace=wrap;rounded=0;fontColor=#4C0099;fontStyle=1" vertex="1" parent="1">
          <mxGeometry x="620" y="370" width="40" height="20" as="geometry" />
        </mxCell>
        <mxCell id="qOs1S8iKU6oeSp8uMiWg-26" value="pause" style="text;html=1;strokeColor=none;fillColor=none;align=center;verticalAlign=middle;whiteSpace=wrap;rounded=0;fontColor=#4C0099;fontStyle=1" vertex="1" parent="1">
          <mxGeometry x="620" y="320" width="40" height="20" as="geometry" />
        </mxCell>
        <mxCell id="qOs1S8iKU6oeSp8uMiWg-27" value="kill" style="text;html=1;strokeColor=none;fillColor=none;align=center;verticalAlign=middle;whiteSpace=wrap;rounded=0;fontColor=#4C0099;fontStyle=1" vertex="1" parent="1">
          <mxGeometry x="610" y="480" width="40" height="20" as="geometry" />
        </mxCell>
        <mxCell id="qOs1S8iKU6oeSp8uMiWg-28" value="docker rm" style="text;html=1;strokeColor=none;fillColor=none;align=center;verticalAlign=middle;whiteSpace=wrap;rounded=0;fontColor=#4C0099;fontStyle=1" vertex="1" parent="1">
          <mxGeometry x="497" y="500" width="80" height="20" as="geometry" />
        </mxCell>
        <mxCell id="qOs1S8iKU6oeSp8uMiWg-29" value="docker exec" style="text;html=1;strokeColor=none;fillColor=none;align=center;verticalAlign=middle;whiteSpace=wrap;rounded=0;fontColor=#4C0099;fontStyle=1" vertex="1" parent="1">
          <mxGeometry x="500" y="440" width="80" height="20" as="geometry" />
        </mxCell>
        <mxCell id="qOs1S8iKU6oeSp8uMiWg-30" value="import" style="text;html=1;strokeColor=none;fillColor=none;align=center;verticalAlign=middle;whiteSpace=wrap;rounded=0;fontColor=#4C0099;fontStyle=1" vertex="1" parent="1">
          <mxGeometry x="530" y="565" width="40" height="20" as="geometry" />
        </mxCell>
        <mxCell id="qOs1S8iKU6oeSp8uMiWg-31" value="export" style="text;html=1;strokeColor=none;fillColor=none;align=center;verticalAlign=middle;whiteSpace=wrap;rounded=0;fontColor=#4C0099;fontStyle=1" vertex="1" parent="1">
          <mxGeometry x="680" y="565" width="40" height="20" as="geometry" />
        </mxCell>
        <mxCell id="qOs1S8iKU6oeSp8uMiWg-32" value="docker images: lista" style="text;html=1;strokeColor=none;fillColor=none;align=center;verticalAlign=middle;whiteSpace=wrap;rounded=0;fontColor=#4C0099;fontStyle=1" vertex="1" parent="1">
          <mxGeometry x="122" y="300" width="135" height="20" as="geometry" />
        </mxCell>
        <mxCell id="qOs1S8iKU6oeSp8uMiWg-33" value="docker build" style="text;html=1;strokeColor=none;fillColor=none;align=center;verticalAlign=middle;whiteSpace=wrap;rounded=0;fontColor=#4C0099;fontStyle=1" vertex="1" parent="1">
          <mxGeometry x="120" y="320" width="100" height="20" as="geometry" />
        </mxCell>
        <mxCell id="qOs1S8iKU6oeSp8uMiWg-34" value="docker rmi" style="text;html=1;strokeColor=none;fillColor=none;align=center;verticalAlign=middle;whiteSpace=wrap;rounded=0;fontColor=#4C0099;fontStyle=1" vertex="1" parent="1">
          <mxGeometry x="116" y="340" width="100" height="20" as="geometry" />
        </mxCell>
        <mxCell id="qOs1S8iKU6oeSp8uMiWg-35" value="docker history" style="text;html=1;strokeColor=none;fillColor=none;align=center;verticalAlign=middle;whiteSpace=wrap;rounded=0;fontColor=#4C0099;fontStyle=1" vertex="1" parent="1">
          <mxGeometry x="125" y="280" width="100" height="20" as="geometry" />
        </mxCell>
        <mxCell id="qOs1S8iKU6oeSp8uMiWg-36" value="" style="endArrow=classic;html=1;exitX=0.75;exitY=1;exitDx=0;exitDy=0;entryX=0.895;entryY=-0.125;entryDx=0;entryDy=0;entryPerimeter=0;" edge="1" parent="1" source="qOs1S8iKU6oeSp8uMiWg-4" target="qOs1S8iKU6oeSp8uMiWg-11">
          <mxGeometry width="50" height="50" relative="1" as="geometry">
            <mxPoint x="370" y="530" as="sourcePoint" />
            <mxPoint x="420" y="480" as="targetPoint" />
          </mxGeometry>
        </mxCell>
        <mxCell id="qOs1S8iKU6oeSp8uMiWg-37" value="save" style="text;html=1;strokeColor=none;fillColor=none;align=center;verticalAlign=middle;whiteSpace=wrap;rounded=0;fontColor=#4C0099;fontStyle=1" vertex="1" parent="1">
          <mxGeometry x="280" y="550" width="40" height="20" as="geometry" />
        </mxCell>
        <mxCell id="qOs1S8iKU6oeSp8uMiWg-38" value="load" style="text;html=1;strokeColor=none;fillColor=none;align=center;verticalAlign=middle;whiteSpace=wrap;rounded=0;fontColor=#4C0099;fontStyle=1" vertex="1" parent="1">
          <mxGeometry x="125" y="550" width="40" height="20" as="geometry" />
        </mxCell>
        <mxCell id="qOs1S8iKU6oeSp8uMiWg-39" value="" style="endArrow=classic;html=1;exitX=0.75;exitY=0;exitDx=0;exitDy=0;" edge="1" parent="1" source="qOs1S8iKU6oeSp8uMiWg-11" target="qOs1S8iKU6oeSp8uMiWg-4">
          <mxGeometry width="50" height="50" relative="1" as="geometry">
            <mxPoint x="330" y="620" as="sourcePoint" />
            <mxPoint x="380" y="570" as="targetPoint" />
          </mxGeometry>
        </mxCell>
        <mxCell id="qOs1S8iKU6oeSp8uMiWg-40" value="push" style="text;html=1;strokeColor=none;fillColor=none;align=center;verticalAlign=middle;whiteSpace=wrap;rounded=0;fontColor=#4C0099;fontStyle=1" vertex="1" parent="1">
          <mxGeometry x="230" y="210" width="40" height="20" as="geometry" />
        </mxCell>
        <mxCell id="qOs1S8iKU6oeSp8uMiWg-41" value="pull" style="text;html=1;strokeColor=none;fillColor=none;align=center;verticalAlign=middle;whiteSpace=wrap;rounded=0;fontColor=#4C0099;fontStyle=1" vertex="1" parent="1">
          <mxGeometry x="340" y="210" width="40" height="20" as="geometry" />
        </mxCell>
        <mxCell id="qOs1S8iKU6oeSp8uMiWg-42" value="commit" style="text;html=1;strokeColor=none;fillColor=none;align=center;verticalAlign=middle;whiteSpace=wrap;rounded=0;fontColor=#4C0099;fontStyle=1" vertex="1" parent="1">
          <mxGeometry x="320" y="390" width="170" height="30" as="geometry" />
        </mxCell>
        <mxCell id="qOs1S8iKU6oeSp8uMiWg-43" value="" style="endArrow=classic;html=1;exitX=0;exitY=1;exitDx=0;exitDy=0;entryX=1.01;entryY=0.624;entryDx=0;entryDy=0;entryPerimeter=0;" edge="1" parent="1" source="qOs1S8iKU6oeSp8uMiWg-6" target="qOs1S8iKU6oeSp8uMiWg-1">
          <mxGeometry width="50" height="50" relative="1" as="geometry">
            <mxPoint x="481.7157287525381" y="418.284271247462" as="sourcePoint" />
            <mxPoint x="279.7342964759648" y="394.6027908447335" as="targetPoint" />
          </mxGeometry>
        </mxCell>
        <mxCell id="qOs1S8iKU6oeSp8uMiWg-44" value="create" style="text;html=1;strokeColor=none;fillColor=none;align=center;verticalAlign=middle;whiteSpace=wrap;rounded=0;fontColor=#4C0099;fontStyle=1" vertex="1" parent="1">
          <mxGeometry x="377" y="320" width="76" height="20" as="geometry" />
        </mxCell>
        <mxCell id="qOs1S8iKU6oeSp8uMiWg-48" value="Image" style="text;html=1;strokeColor=none;fillColor=none;align=center;verticalAlign=middle;whiteSpace=wrap;rounded=0;fontStyle=1;fontColor=#0066CC;fontSize=20;" vertex="1" parent="1">
          <mxGeometry x="185" y="230" width="40" height="20" as="geometry" />
        </mxCell>
        <mxCell id="qOs1S8iKU6oeSp8uMiWg-49" value="Registry" style="text;html=1;strokeColor=none;fillColor=none;align=center;verticalAlign=middle;whiteSpace=wrap;rounded=0;fontStyle=1;fontColor=#0066CC;fontSize=20;" vertex="1" parent="1">
          <mxGeometry x="390" y="120" width="40" height="20" as="geometry" />
        </mxCell>
        <mxCell id="qOs1S8iKU6oeSp8uMiWg-52" value="&lt;span style=&quot;color: rgb(0 , 0 , 0) ; font-family: &amp;#34;helvetica&amp;#34; ; font-size: 12px ; font-style: normal ; font-weight: 400 ; letter-spacing: normal ; text-align: center ; text-indent: 0px ; text-transform: none ; word-spacing: 0px ; background-color: rgb(248 , 249 , 250) ; display: inline ; float: none&quot;&gt;run: up the container and execute.&lt;/span&gt;" style="text;whiteSpace=wrap;html=1;fontSize=20;fontColor=#0066CC;" vertex="1" parent="1">
          <mxGeometry x="60" y="790" width="220" height="40" as="geometry" />
        </mxCell>
        <mxCell id="qOs1S8iKU6oeSp8uMiWg-53" value="&lt;span style=&quot;color: rgb(0 , 0 , 0) ; font-family: &amp;#34;helvetica&amp;#34; ; font-size: 12px ; font-style: normal ; font-weight: 400 ; letter-spacing: normal ; text-align: center ; text-indent: 0px ; text-transform: none ; word-spacing: 0px ; background-color: rgb(248 , 249 , 250) ; display: inline ; float: none&quot;&gt;commit: save state as a image&lt;/span&gt;" style="text;whiteSpace=wrap;html=1;fontSize=20;fontColor=#0066CC;" vertex="1" parent="1">
          <mxGeometry x="60" y="830" width="230" height="40" as="geometry" />
        </mxCell>
        <mxCell id="qOs1S8iKU6oeSp8uMiWg-56" value="docker images: list images" style="text;html=1;strokeColor=none;fillColor=none;align=center;verticalAlign=middle;whiteSpace=wrap;rounded=0;" vertex="1" parent="1">
          <mxGeometry x="50" y="870" width="170" height="20" as="geometry" />
        </mxCell>
        <mxCell id="qOs1S8iKU6oeSp8uMiWg-57" value="Tar files" style="text;html=1;strokeColor=none;fillColor=none;align=center;verticalAlign=middle;whiteSpace=wrap;rounded=0;fontStyle=1;fontColor=#0066CC;fontSize=20;" vertex="1" parent="1">
          <mxGeometry x="372.5" y="670" width="95" height="20" as="geometry" />
        </mxCell>
      </root>
    </mxGraphModel>
  </diagram>
</mxfile>
